<?xml version="1.0" encoding="UTF-8"?>
<svg width="36px" height="36px" viewBox="0 0 36 36" version="1.1" xmlns="http://www.w3.org/2000/svg" xmlns:xlink="http://www.w3.org/1999/xlink">
    <title>Pastel de Cumpleaños</title>
    <g id="Pastel" stroke="none" stroke-width="1" fill="none" fill-rule="evenodd">
        <path d="M34,18.125 L34,31 C34,32.105 33.105,33 32,33 L4,33 C2.896,33 2,32.105 2,31 L2,18.125 C2,15.353 5.269,14.106 8,15.679 C10.729,17.252 14.273,17.251 17,15.679 C19.729,14.106 23.271,14.106 26,15.679 C28.731,17.252 32,15.353 32,12.582 L34,12.582 C34,18.125 34,18.125 34,18.125 Z" id="Capa-3" fill="#EA596E"></path>
        <path d="M30,12.891 L30,26 C30,26.552 29.553,27 29,27 L7,27 C6.447,27 6,26.552 6,26 L6,12.891 C6,10.517 8.686,9.416 11,10.75 C13.314,12.084 16.687,12.084 19,10.75 C21.313,9.416 24.687,9.416 27,10.75 C29.314,12.084 32,10.517 32,8.143 L30,8.143 C30,12.891 30,12.891 30,12.891 Z" id="Capa-2" fill="#FFCC4D"></path>
        <path d="M19.999,11.25 C21.917,10.25 24.585,10.25 26.873,11.537 C28.366,12.365 30.017,12.221 31.125,11.346 L31.125,9.25 L31.125,8.625 C31.125,6.764 29.111,5.831 27.173,6.903 C25.236,7.975 22.264,7.975 20.326,6.903 C18.389,5.831 15.611,5.831 13.674,6.903 C11.736,7.975 8.764,7.975 6.826,6.903 C4.889,5.831 2.875,6.764 2.875,8.625 L2.875,9.25 L4.875,9.25 C6.542,9.25 7.979,10.154 8.829,11.519 C8.856,11.509 13.562,8.25 19.999,11.25 Z" id="Capa-1" fill="#F4900C"></path>
        <path d="M17.999,2 C17.999,2 17.874,0 15.999,0 C14.124,0 13.999,2 13.999,2 C13.974,2.828 14.499,3 14.999,3 L16.999,3 C17.499,3 18.024,2.828 17.999,2 Z" id="Vela-1" fill="#A0041E"></path>
        <path d="M17.999,5 C18.551,5 18.999,4.552 18.999,4 C18.999,3.448 18.551,3 17.999,3 C17.447,3 16.999,3.448 16.999,4 C16.999,4.552 17.447,5 17.999,5 Z" id="Fuego-1" fill="#FFAC33"></path>
        <path d="M21.999,4 C21.999,4 21.874,2 19.999,2 C18.124,2 17.999,4 17.999,4 C17.974,4.828 18.499,5 18.999,5 L20.999,5 C21.499,5 22.024,4.828 21.999,4 Z" id="Vela-2" fill="#55ACEE"></path>
        <path d="M21.999,7 C22.551,7 22.999,6.552 22.999,6 C22.999,5.448 22.551,5 21.999,5 C21.447,5 20.999,5.448 20.999,6 C20.999,6.552 21.447,7 21.999,7 Z" id="Fuego-2" fill="#FFCC4D"></path>
        <path d="M13.999,4 C13.999,4 13.874,2 11.999,2 C10.124,2 9.999,4 9.999,4 C9.974,4.828 10.499,5 10.999,5 L12.999,5 C13.499,5 14.024,4.828 13.999,4 Z" id="Vela-3" fill="#77B255"></path>
        <path d="M13.999,7 C14.551,7 14.999,6.552 14.999,6 C14.999,5.448 14.551,5 13.999,5 C13.447,5 12.999,5.448 12.999,6 C12.999,6.552 13.447,7 13.999,7 Z" id="Fuego-3" fill="#FFAC33"></path>
        <path d="M25.999,6 C25.999,6 25.874,4 23.999,4 C22.124,4 21.999,6 21.999,6 C21.974,6.828 22.499,7 22.999,7 L24.999,7 C25.499,7 26.024,6.828 25.999,6 Z" id="Vela-4" fill="#F4900C"></path>
        <path d="M25.999,9 C26.551,9 26.999,8.552 26.999,8 C26.999,7.448 26.551,7 25.999,7 C25.447,7 24.999,7.448 24.999,8 C24.999,8.552 25.447,9 25.999,9 Z" id="Fuego-4" fill="#FFAC33"></path>
        <path d="M9.999,6 C9.999,6 9.874,4 7.999,4 C6.124,4 5.999,6 5.999,6 C5.974,6.828 6.499,7 6.999,7 L8.999,7 C9.499,7 10.024,6.828 9.999,6 Z" id="Vela-5" fill="#EA596E"></path>
        <path d="M9.999,9 C10.551,9 10.999,8.552 10.999,8 C10.999,7.448 10.551,7 9.999,7 C9.447,7 8.999,7.448 8.999,8 C8.999,8.552 9.447,9 9.999,9 Z" id="Fuego-5" fill="#FFCC4D"></path>
    </g>
</svg> 