<svg xmlns="http://www.w3.org/2000/svg" viewBox="0 0 24 24" fill="#ff6ec4">
  <path d="M11 17h2v-7h-2v7zm1-9c.55 0 1-.45 1-1s-.45-1-1-1-1 .45-1 1 .45 1 1 1zm0-4c-6.63 0-12 5.37-12 12s5.37 12 12 12 12-5.37 12-12-5.37-12-12-12zm0 22c-5.52 0-10-4.48-10-10s4.48-10 10-10 10 4.48 10 10-4.48 10-10 10z" opacity="0.8"/>
  <path d="M12 2c-5.52 0-10 4.48-10 10s4.48 10 10 10 10-4.48 10-10-4.48-10-10-10zm0 18c-4.41 0-8-3.59-8-8s3.59-8 8-8 8 3.59 8 8-3.59 8-8 8z" fill="#e84393"/>
  <path d="M12.5 7.5c1.1 0 2-.9 2-2s-.9-2-2-2-2 .9-2 2 .9 2 2 2z" fill="#ff6ec4"/>
  <path d="M16 14c-1.65 0-3 1.35-3 3 0 .7.25 1.4.73 1.97l-3.73 2.03v-7c1.13 0 2.14-.45 2.88-1.2.74-.74 1.2-1.76 1.2-2.88 0-2.23-1.77-4.07-4-4.2-2.44-.11-4.44 1.83-4.44 4.21 0 1.13.45 2.14 1.2 2.88.74.74 1.76 1.2 2.88 1.2v7l-3.73-2.03c.48-.58.73-1.27.73-1.97 0-1.65-1.35-3-3-3-.77 0-1.47.3-2 .78v-.78c0-.83-.67-1.5-1.5-1.5s-1.5.67-1.5 1.5v4.28c0 2.5 1.97 4.66 4.44 4.78.2.01.41.01.61 0 2.47-.12 4.44-2.28 4.44-4.78v-4.28c0-.83-.67-1.5-1.5-1.5s-1.5.67-1.5 1.5v.78c-.53-.48-1.23-.78-2-.78z" fill="#ffc0cb"/>
</svg>